<?xml version="1.0" encoding="utf-8"?>
<!-- Generator: Adobe Illustrator 24.0.2, SVG Export Plug-In . SVG Version: 6.00 Build 0)  -->
<svg version="1.0" id="Capa_1" xmlns="http://www.w3.org/2000/svg" xmlns:xlink="http://www.w3.org/1999/xlink" x="0px" y="0px"
	 width="1500px" height="1200px" viewBox="0 0 1500 1200" style="enable-background:new 0 0 1500 1200;" xml:space="preserve">
<style type="text/css">
	.logo01{fill-rule:evenodd;clip-rule:evenodd;fill:#FFFFFF;}
	.logo02{fill-rule:evenodd;clip-rule:evenodd;fill:#999999;}
	.logo03{fill:#FFFFFF;}
</style>
<path class="logo01" d="M761.3,40l151.5,384l-47.2,316H761.5L761.3,40z M917.7,436.4L1037.4,740h-96.5L917.7,436.4z M1347.1,740h-7.4 l7.4-47.3V740z M780.7,40h242.2l30.3,293.7L1172.8,40h139.2l-269.9,662.8L780.7,40z M1144.8,507.8l184.8-453.9V740h-223.9 L1144.8,507.8z M229.3,387.2h327.2l11-70.7l-200.1,0.6l9.7-62.4l282.8-0.6L693.4,40H158.2L49,740l162.7,0l0-683.7h395h8.9V76H229.3 V387.2z M535.1,525.1L553.5,407H229.3l0,333h72.1L335,525.1H535.1z M743.3,40v700H631.6L743.3,40z"/>
<polygon class="logo02" points="1347.1,692.7 1449,40 1347.1,40 "/>
<path class="logo03" d="M1354.6,935.6l1.9-12.4h46.8c27.4,0,27.5-31.9,8.9-31.9c-12.7,0-36.4,2.5-45.1-8.6c-12-15.2,2.7-47.2,17.5-53.3 c14.6-6,48.3-3,64.5,0.2l-2.3,12.4c-10.6,0-49.7-2.2-56.8,3.2c-4.6,3.5-11,23.2-3.9,27.1c10.8,5.9,35.9-3.9,50.8,7.3 c15.4,11.5,5.5,46.3-8.4,53.5C1410.8,942.2,1374.8,939.4,1354.6,935.6 M1308.6,915c9.6-9.9,20.1-56.6,8-67.6 c-8.9-8.1-32.7-6.5-41.3,3.2c-9.9,11.2-16.9,52.2-9.9,63.3C1272.8,925.8,1299.7,924.2,1308.6,915z M1246.8,923 c-12.1-20.2-1-71.7,15.3-86.1c16.7-14.7,67.1-17.7,77.1,6.5c10.8,26.3-0.9,81.2-26.7,91.3C1293.9,941.9,1258.7,942.8,1246.8,923z M1170.4,913.9c0-20.6,7.2-49.4,10.8-69.7h-17.4l2.1-13.4l18.4-3.5l8.1-31h16.3l-5,31h30l-2.7,17h-30c-1.1,6.8-14.8,65.8-6.5,73.6 c4.6,4.3,16.6,4.3,22.9,4.9l-2.5,15.3C1196.2,937.9,1170.4,940.3,1170.4,913.9z M1037,937.9l17.4-110.7h17l2.1,12 c15.6-10.9,55.5-24,67-1c5,9.9,2.4,23.2,0.8,33.7l-10.6,66H1110c2.7-16.8,18.6-76.9,7.9-89.1c-10.1-11.5-36.5,0-47,6.5l-13.2,82.6 H1037z M1007.2,858.8c0-24.3-40.7-22.9-51.5,0.1c-2.6,5.6-4.5,12.4-5.6,20.4C968,882.2,1007.2,885.6,1007.2,858.8z M932,921.1 c-9.1-18.2-2.7-56.5,7.2-72.8c17.6-28.9,87.6-35.9,87.6,8.5c0,39.7-49.5,41.3-78.2,33.7c-0.6,3.7-0.6,7.5-0.6,11.2 c0,29.5,45.2,21.7,65.8,21.7l-1.9,12.4C989.3,939.8,944.2,945.6,932,921.1z M876.6,937.9L894,827.2h20.9l-17.6,110.7H876.6z M899.8,808.6c-1.9,0-3.5-1.6-2.9-3.5l2.7-17.4c0.4-2.5,1.8-3.7,4.1-3.7h15.5c2.3,0,2.9,1.7,2.7,3.7l-2.7,17.4 c-0.4,2.3-1.7,3.5-3.9,3.5H899.8z M683.5,937.9l17.4-110.7h17l2.1,12c19-12.5,57.3-24.6,69.1,3.1c15.1-12.5,50.2-25.1,66.6-9.8 c17.1,15.9-2.5,87.2-5.4,105.4h-20.9c3.3-21,12-57.8,12-77.4c0-28.6-38.8-13.1-52.3-3.9c1.7,17.2-8.8,62.3-11.8,81.3h-20.7 l11.2-70.4c0.6-6.7,1.9-13.4-3.5-18.9c-10.9-11.1-35.9,0.3-46.8,6.7l-13.2,82.6H683.5z M640.5,912.8l10.1-64.8 c-10.4-6.4-30.8-7.1-41.1-0.9c-17.3,10.3-25,55.9-13.8,68.8C607.1,929,628,919.1,640.5,912.8z M574,923.1 c-13.5-26.6,1.3-79.1,26.1-91.4c18.7-9.3,56.4-7.5,72.9,6.8l-15.7,99.3h-18l-0.8-11.6C621.1,939.9,586.3,947.4,574,923.1z M515.1,917c14.3-9.4,25.2-52.8,13.3-67.9c-7.3-9.3-32.3-6.1-43.8-6L472.9,917C485.9,920.8,502.9,925,515.1,917z M441.2,986.9 l24.8-156.8c20-3.3,64.6-10.4,79,5.4c19.4,21.3,4.9,83-19.7,97.5c-14.8,8.7-39.4,7.9-54.8,0.4l-8.7,53.6H441.2z M402.1,937.9 l17.4-110.7h20.9l-17.6,110.7H402.1z M425.3,808.6c-1.9,0-3.5-1.6-2.9-3.5l2.7-17.4c0.4-2.5,1.8-3.7,4.1-3.7h15.5 c2.3,0,2.9,1.7,2.7,3.7l-2.7,17.4c-0.4,2.3-1.7,3.5-3.9,3.5H425.3z M287.7,901.1l11.6-73.9h20.9l-11.4,72 c-4.8,33.5,34.1,20.2,50.5,10.8l13-82.8h20.9l-17.6,110.7h-18l-0.8-11.8C326.5,945.3,279.6,950.1,287.7,901.1z M239.1,912.8 l10.8-68.5c-11.9-1.4-30.3-3.2-40.7,2.3c-17,9.1-26.6,56-14.7,69.5C205.4,928.6,227.1,919,239.1,912.8z M227.3,986.9l9.5-60.6 c-15.3,11.2-46.5,20.8-60.5,2.9c-18.6-23.8-5.3-89.1,29.8-100.1c16.9-5.3,49.2-3.2,66.7,2.3L248,986.9H227.3z M79.1,939.1 c-20.9,0-32.7-9.7-29-31.9L64.4,817c3.1-20.6,15.8-32.2,36.8-31.7c20.7,0.3,41.4,1,62.1,2.1l-2.7,17.2h-56.9 c-11.9,0-17.5,6.2-19.2,17.6l-4.8,30.2l63.7,1.7l-2.7,16.1l-64.1,1l-5,31.5c-1.5,12.2,3.3,17,15.3,17h55.7l-2.7,17.2 C119.7,937.7,99.4,938.9,79.1,939.1z"/>
<path class="logo01" d="M345.7,1051.8c-14.8,6.1-29.5,38.1-17.5,53.3c8.8,11.1,32.4,8.6,45.1,8.6c18.6,0,18.5,31.9-8.9,31.9h-46.8 l-1.9,12.4c20.2,3.8,56.3,6.6,73.8-2.4c13.9-7.2,23.7-42,8.4-53.5c-14.9-11.2-40-1.4-50.8-7.3c-7.1-3.9-0.7-23.6,3.9-27.1 c7.1-5.4,46.2-3.2,56.8-3.2l2.3-12.4C394.1,1048.8,360.3,1045.8,345.7,1051.8 M460,1140.1c-8.2-7.7,5.4-66.8,6.5-73.6h30l2.7-17h-30 l5-31h-16.3l-8.1,31l-18.4,3.5l-2.1,13.4h17.4c-3.5,20.3-10.8,49.2-10.8,69.7c0,26.5,25.7,24,44.5,24l2.5-15.3 C476.5,1144.4,464.5,1144.3,460,1140.1z M677.1,1049.6l-13.2,82.6c-10.5,6.5-36.8,18-47,6.5c-10.7-12.1,5.2-72.3,7.9-89.1h-20.7 l-10.6,66c-1.6,10.5-4.1,23.8,0.8,33.7c11.5,23,51.5,9.9,67-1l2.1,12h17l17.4-110.7H677.1z M1170.6,1070.5l-10.1,64.8 c-12.5,6.3-33.4,16.1-44.7,3.1c-11.2-12.9-3.6-58.5,13.8-68.8C1139.9,1063.4,1160.2,1064.1,1170.6,1070.5z M1177.3,1160.3l15.7-99.3 c-16.5-14.4-54.3-16.1-72.9-6.8c-24.7,12.3-39.6,64.7-26.1,91.4c12.3,24.3,47.1,16.9,64.5,3.2l0.8,11.6H1177.3z M977.4,1049.6 l-13.2,82.6c-10.5,6.5-36.8,18-47,6.5c-10.7-12.1,5.2-72.3,7.9-89.1h-20.7l-10.6,66c-1.6,10.5-4.1,23.8,0.8,33.7 c11.5,23,51.5,9.9,67-1l2.1,12h17l17.4-110.7H977.4z M1232.2,1051.8c-14.8,6.1-29.5,38.1-17.5,53.3c8.8,11.1,32.4,8.6,45.1,8.6 c18.6,0,18.5,31.9-8.9,31.9h-46.8l-1.9,12.4c20.2,3.8,56.3,6.6,73.8-2.4c13.9-7.2,23.7-42,8.4-53.5c-14.9-11.2-40-1.4-50.8-7.3 c-7.1-3.9-0.7-23.6,3.9-27.1c7.1-5.4,46.2-3.2,56.8-3.2l2.3-12.4C1280.5,1048.8,1246.8,1045.9,1232.2,1051.8z M843.6,1140.1 c-8.2-7.7,5.4-66.8,6.5-73.6h30l2.7-17h-30l5-31h-16.3l-8.1,31l-18.4,3.5l-2.1,13.4h17.4c-3.5,20.3-10.8,49.2-10.8,69.7 c0,26.5,25.7,24,44.5,24l2.5-15.3C860.2,1144.4,848.1,1144.3,843.6,1140.1z M524.4,1160.3l12.6-80.5c13.7-9,29-12.3,45.1-9.1 l3.1-20.9c-16.4-5.5-33.6,2.5-45.5,13.7l-0.6-13.9h-18l-17.6,110.7H524.4z M1028.1,1160.3l12.6-80.5c13.7-9,29-12.3,45.1-9.1 l3.1-20.9c-16.4-5.5-33.6,2.5-45.5,13.7l-0.6-13.9h-18l-17.6,110.7H1028.1z M751.7,1068.5c10.7-5.9,34.2-3.8,46.9-3.8l2.1-12.2 c-18.6-3.6-43-7.6-60.4,1.1c-23.4,11.7-39.1,66.7-24.6,92c12.4,21.8,50.4,17.3,70.6,11.8l1.9-11.8c-14.7,0-46.1,4.9-53.8-10.6 C726,1118.6,735.9,1077.2,751.7,1068.5z M295.8,1076.5l-63.7-1.7l4.8-30.2c1.7-11.4,7.3-17.6,19.2-17.6H313l2.7-17.2 c-20.7-1.1-41.4-1.8-62.1-2.1c-21-0.5-33.7,11-36.8,31.7l-14.3,90.2c-3.7,22.1,8.1,31.9,29,31.9c20.3-0.3,40.5-1.4,60.8-2.3 l2.7-17.2h-55.7c-12,0-16.8-4.8-15.3-17l5-31.5l64.1-1L295.8,1076.5z"/>
</svg>
